# xmcd CD database file
#
# Track frame offsets:
#	150
#	547
#	23991
#	67600
#	93975
#	121640
#
# Disc length: 1731 seconds
#
# Revision: 0
# Processed by: cddbd v1.5.2PL0 Copyright (c) Steve Scherf et al.
# Submitted via: Feurio! 1.68 - http://www.feurio.com
#
DISCID=3506c106
DTITLE=Albert King - Fillmore East   New York City, NY   06-27-71
DYEAR=1900
DGENRE=
TTITLE0=intro By Bill Graham
TTITLE1=Knock On Wood (Instrumental)
TTITLE2=Blues Power
TTITLE3=Crosscut Saw
TTITLE4=Personal Manager
TTITLE5=instrumental Jam
EXTD=
EXTT0=
EXTT1=
EXTT2=
EXTT3=
EXTT4=
EXTT5=
PLAYORDER=
